<?xml version="1.0" encoding="utf-8"?>
<!-- Generator: Adobe Illustrator 18.0.0, SVG Export Plug-In . SVG Version: 6.00 Build 0)  -->
<!DOCTYPE svg PUBLIC "-//W3C//DTD SVG 1.1//EN" "http://www.w3.org/Graphics/SVG/1.1/DTD/svg11.dtd">
<svg version="1.1" xmlns="http://www.w3.org/2000/svg" xmlns:xlink="http://www.w3.org/1999/xlink" x="0px" y="0px"
	 viewBox="0 0 127.4 127.4" enable-background="new 0 0 127.4 127.4" xml:space="preserve">
<g id="Layer_2">
</g>
<g id="Layer_1">
	<radialGradient id="SVGID_1_" cx="63.7124" cy="63.7124" r="59.2158" gradientUnits="userSpaceOnUse">
		<stop  offset="0.6587" style="stop-color:#BE1622;stop-opacity:0.95"/>
		<stop  offset="0.6658" style="stop-color:#BF1D22;stop-opacity:0.9174"/>
		<stop  offset="0.674" style="stop-color:#C22C22;stop-opacity:0.8803"/>
		<stop  offset="0.6826" style="stop-color:#C74122;stop-opacity:0.8412"/>
		<stop  offset="0.6915" style="stop-color:#CF5D22;stop-opacity:0.8006"/>
		<stop  offset="0.7007" style="stop-color:#DA7F1C;stop-opacity:0.7588"/>
		<stop  offset="0.71" style="stop-color:#E9A804;stop-opacity:0.7161"/>
		<stop  offset="0.7194" style="stop-color:#FCD500;stop-opacity:0.6733"/>
		<stop  offset="0.7243" style="stop-color:#FFED00;stop-opacity:0.6512"/>
		<stop  offset="0.7686" style="stop-color:#D8C62D;stop-opacity:0.5465"/>
		<stop  offset="0.8539" style="stop-color:#898150;stop-opacity:0.3452"/>
		<stop  offset="0.9235" style="stop-color:#4F4B3D;stop-opacity:0.1808"/>
		<stop  offset="0.9739" style="stop-color:#252320;stop-opacity:6.169242e-02"/>
		<stop  offset="1" style="stop-color:#000000;stop-opacity:0"/>
	</radialGradient>
	<path fill="url(#SVGID_1_)" d="M63.7,0C28.5,0,0,28.5,0,63.7c0,35.2,28.5,63.7,63.7,63.7s63.7-28.5,63.7-63.7
		C127.4,28.5,98.9,0,63.7,0z M63.7,105.1c-22.9,0-41.4-18.5-41.4-41.4c0-22.9,18.5-41.4,41.4-41.4s41.4,18.5,41.4,41.4
		C105.1,86.6,86.6,105.1,63.7,105.1z"/>
	<circle opacity="0.24" fill="#FFFFFF" cx="63.7" cy="63.7" r="41.3"/>
	<line fill="none" stroke="#000000" stroke-miterlimit="10" x1="62" y1="62" x2="65.5" y2="65.5"/>
	<line fill="none" stroke="#000000" stroke-miterlimit="10" x1="65.5" y1="62" x2="62" y2="65.5"/>
</g>
</svg>
