<?xml version="1.0" encoding="utf-8"?>
<!-- Generator: Adobe Illustrator 18.0.0, SVG Export Plug-In . SVG Version: 6.00 Build 0)  -->
<!DOCTYPE svg PUBLIC "-//W3C//DTD SVG 1.1//EN" "http://www.w3.org/Graphics/SVG/1.1/DTD/svg11.dtd">
<svg version="1.1" id="Layer_1" xmlns="http://www.w3.org/2000/svg" xmlns:xlink="http://www.w3.org/1999/xlink" x="0px" y="0px"
	 viewBox="0 0 30.7 30.7" enable-background="new 0 0 30.7 30.7" xml:space="preserve">
<circle fill="#2FAC66" cx="15.3" cy="15.3" r="15.3"/>
<g>
	<path fill="#FFFFFF" d="M7,16.4H4.8v-1.7H7v-2.1h1.7v2.1h2.2v1.7H8.7v2.2H7V16.4z"/>
	<path fill="#FFFFFF" d="M13.8,13.2l-1.5,0.4L12,12.1l2.4-0.7h1.3v8.5h-1.8V13.2z"/>
	<path fill="#FFFFFF" d="M21.1,20c-0.6,0-1.1-0.1-1.5-0.3c-0.5-0.2-0.9-0.5-1.2-0.9c-0.3-0.4-0.6-0.8-0.8-1.4
		c-0.2-0.5-0.3-1.1-0.3-1.7v0c0-0.6,0.1-1.2,0.3-1.7c0.2-0.5,0.4-1,0.8-1.4c0.3-0.4,0.7-0.7,1.2-0.9c0.5-0.2,1-0.3,1.5-0.3
		c0.6,0,1.1,0.1,1.5,0.3c0.5,0.2,0.9,0.5,1.2,0.9c0.3,0.4,0.6,0.8,0.8,1.4c0.2,0.5,0.3,1.1,0.3,1.7v0c0,0.6-0.1,1.2-0.3,1.7
		c-0.2,0.5-0.4,1-0.8,1.4c-0.3,0.4-0.7,0.7-1.2,0.9S21.7,20,21.1,20z M21.1,18.3c0.3,0,0.5-0.1,0.8-0.2c0.2-0.1,0.4-0.3,0.6-0.6
		s0.3-0.5,0.4-0.8c0.1-0.3,0.1-0.7,0.1-1.1v0c0-0.4,0-0.7-0.1-1.1c-0.1-0.3-0.2-0.6-0.4-0.8c-0.2-0.2-0.4-0.4-0.6-0.6
		c-0.2-0.1-0.5-0.2-0.8-0.2c-0.3,0-0.5,0.1-0.8,0.2c-0.2,0.1-0.4,0.3-0.6,0.6s-0.3,0.5-0.4,0.8c-0.1,0.3-0.1,0.7-0.1,1.1v0
		c0,0.4,0,0.7,0.1,1.1s0.2,0.6,0.4,0.8c0.2,0.2,0.4,0.4,0.6,0.6C20.6,18.2,20.9,18.3,21.1,18.3z"/>
</g>
</svg>
