<svg xmlns="http://www.w3.org/2000/svg" viewBox="0 0 82.5 10.4"><path fill="#FFF" d="M0 2.5h1.9L3 6.2l1.1-3.7h1.8l-2 5.9H2L0 2.5zM6.6 2.5h1.7v.7c.2-.2.4-.4.7-.6.3-.2.7-.3 1.1-.3.4 0 .8.1 1.2.2.4.2.7.4.9.6s.5.6.6 1c.2.5.3.9.3 1.3s-.1.7-.2 1.1c-.1.4-.3.7-.5 1-.2.3-.5.6-.9.8-.4.2-.8.3-1.3.3s-.8-.1-1.1-.3c-.3-.2-.5-.3-.7-.5v2.6H6.6V2.5zm3.2 4.4c.2 0 .4 0 .6-.1.2-.1.3-.2.4-.3s.2-.3.3-.5c.1-.2.1-.4.1-.6 0-.2 0-.4-.1-.5-.1-.2-.2-.3-.3-.5-.1-.1-.3-.2-.4-.3S10 4 9.8 4c-.2 0-.4 0-.6.1s-.3.2-.4.4c-.1.1-.2.2-.3.4-.1.2-.1.4-.1.6 0 .2 0 .4.1.6s.2.3.3.5.3.2.4.3.4 0 .6 0zM14 2.5h1.7v.8c.2-.3.4-.5.7-.7.3-.2.7-.3 1.2-.3.3 0 .6 0 .9.1l-.6 1.8c-.2-.1-.4-.2-.6-.2-.2 0-.4 0-.5.1-.2.1-.3.2-.4.3-.1.1-.2.3-.3.4-.1.2-.1.4-.1.6v3h-2V2.5zM21.6 8.6c-.5 0-1-.1-1.4-.3-.4-.2-.7-.4-1-.7-.3-.3-.5-.6-.6-1-.1-.4-.2-.7-.2-1.1 0-.4.1-.7.2-1.1s.3-.7.6-1c.3-.3.6-.5 1-.7s.9-.3 1.4-.3c.5 0 1 .1 1.4.3.4.2.7.4 1 .7.3.3.5.6.6 1s.2.7.2 1.1c0 .4-.1.7-.2 1.1-.1.4-.3.7-.6 1-.3.3-.6.5-1 .7-.4.2-.9.3-1.4.3zm0-1.7c.2 0 .4 0 .5-.1.2-.1.3-.2.4-.3s.2-.3.3-.5c.1-.1.2-.3.2-.5s0-.4-.1-.6c-.1-.2-.2-.3-.3-.5s-.3-.2-.4-.3c-.2 0-.4-.1-.6-.1s-.4 0-.5.1c-.2.1-.3.2-.4.3s-.2.3-.3.5c-.1.2-.1.4-.1.6s0 .4.1.6c.1.2.2.3.3.5s.3.2.4.3h.5z"/><path fill="#F50" d="M28.1 8.6c-1.5 0-2.2-.8-2.2-2.5V4h-.7V2.5h.7V.9h1.8v1.6h2V4h-2v2.1c0 .3.1.5.2.7.1.1.3.2.5.2s.4 0 .5-.1l.3-.3.6 1.3c-.1.2-.3.3-.6.4-.3.2-.7.3-1.1.3z"/><path fill="#F50" d="M31.4 2c-.3 0-.6-.1-.8-.3-.2-.2-.3-.4-.3-.7s.1-.5.3-.7c.2-.2.5-.3.8-.3.3 0 .6.1.8.3.2.2.3.4.3.7s-.1.5-.3.7c-.2.2-.4.3-.8.3zm-.9.5h1.8v5.9h-1.8V2.5zM33.6 2.5h1.7v.7c.2-.3.4-.5.7-.6.3-.2.6-.2 1.1-.2.4 0 .8.1 1.1.2.3.1.6.3.8.6.2.2.3.5.4.9.1.3.1.7.1 1.1v3.3h-1.8V5.3c0-.2 0-.3-.1-.5s-.1-.3-.2-.4l-.3-.3c-.2-.1-.3-.1-.5-.1s-.4 0-.5.1c-.1.1-.3.2-.4.3-.1.1-.2.3-.2.4 0 .2-.1.3-.1.5v3.1h-1.8V2.5zM43.1 8.6c-.5 0-1-.1-1.3-.3s-.7-.4-.9-.8c-.2-.3-.4-.6-.5-1-.1-.4-.2-.7-.2-1.1 0-.4.1-.8.2-1.2.1-.4.3-.7.6-1 .3-.3.6-.5.9-.6.4-.2.7-.2 1.2-.2s.8.1 1.1.3.5.4.6.5v-3h1.8v8.3H45v-.8c-.2.2-.4.4-.7.6s-.7.3-1.2.3zm.4-1.7c.2 0 .4 0 .6-.1.2-.1.3-.2.4-.3s.2-.3.3-.5.1-.4.1-.6c0-.2 0-.4-.1-.5-.1-.2-.2-.3-.3-.5-.1-.1-.3-.2-.5-.3-.1-.1-.3-.1-.5-.1s-.4 0-.6.1c-.2.1-.3.2-.4.3-.1.1-.2.3-.3.5-.1.2-.2.4-.2.6 0 .2 0 .4.1.6.1.2.2.3.3.5.1.1.3.2.4.3s.4 0 .7 0zM50.7 8.6c-.5 0-1-.1-1.4-.3-.4-.2-.7-.4-1-.7-.3-.3-.5-.6-.6-1-.1-.4-.2-.7-.2-1.1 0-.4.1-.7.2-1.1.1-.4.3-.7.5-1s.6-.5.9-.7c.4-.2.8-.3 1.4-.3.5 0 1 .1 1.4.3.4.2.7.4.9.7.2.3.4.6.5 1 .1.4.2.7.2 1.1v.6h-4.2c0 .2.1.3.2.4l.3.3c.2.1.4.1.5.2h.5c.3 0 .5 0 .8-.1s.4-.2.5-.3l1.1 1c-.2.3-.5.5-1 .7-.5.2-.9.3-1.5.3zm-.1-4.8c-.3 0-.6.1-.8.2s-.4.4-.5.8h2.5c-.1-.4-.2-.6-.4-.8s-.5-.2-.8-.2zM54.5 2.5h1.7v.8c.2-.3.4-.5.7-.7.3-.2.7-.3 1.2-.3.3 0 .6 0 .9.1l-.6 1.8c-.2-.1-.4-.2-.6-.2-.2 0-.4 0-.5.1-.2.1-.3.2-.4.3-.1.1-.2.3-.3.4-.1.2-.1.4-.1.6v3h-1.8V2.5z"/><path fill="#FFF" d="M59.5.1h1.8v8.3h-1.8V.1zM63.4 2c-.3 0-.6-.1-.8-.3-.2-.2-.3-.4-.3-.7s.1-.5.3-.7c.2-.2.4-.3.8-.3.3 0 .6.1.8.3.2.2.3.4.3.7s-.1.5-.3.7c-.2.2-.5.3-.8.3zm-.9.5h1.8v5.9h-1.8V2.5zM68.4 8.6c-.5 0-1-.1-1.4-.3-.4-.2-.7-.4-1-.7-.3-.3-.5-.6-.6-1-.1-.4-.2-.7-.2-1.1 0-.4.1-.7.2-1.1.1-.4.3-.7.6-1s.6-.5 1-.7.9-.3 1.4-.3c.5 0 .9.1 1.3.3.4.2.7.4.9.7l-1.2 1.2c-.1-.1-.3-.3-.5-.3-.2-.1-.4-.1-.6-.1-.4 0-.7.1-.9.4-.2.1-.4.4-.4.9 0 .4.1.8.4 1 .3.3.6.4.9.4.2 0 .4 0 .6-.1.2-.1.3-.2.5-.3l1.2 1.2c-.2.3-.5.5-.9.7-.4.1-.8.2-1.3.2zM71.4.1h1.8V3c.2-.2.4-.4.6-.5.3-.1.6-.2 1-.2s.8.1 1.1.2c.3.1.6.3.8.6.2.3.3.6.4.9.1.3.1.7.1 1.1v3.3h-1.8V5.3c0-.2 0-.3-.1-.5s-.1-.3-.2-.4-.1-.3-.2-.3c-.2-.1-.3-.1-.6-.1-.2 0-.4 0-.5.1-.1.1-.3.2-.4.3-.1.1-.2.3-.2.4 0 .2-.1.3-.1.5v3.1h-1.8V.1zM80.8 8.6c-1.5 0-2.2-.8-2.2-2.5V4h-.7V2.5h.7V.9h1.8v1.6h2V4h-2v2.1c0 .3.1.5.2.7.1.1.3.2.5.2s.4 0 .5-.1l.3-.3.6 1.3c-.1.2-.3.3-.6.4-.4.2-.7.3-1.1.3z"/></svg>